<svg xmlns="http://www.w3.org/2000/svg" viewBox="0 0 100 100"><defs><style>.cls-1{fill:#bc175a;}.cls-2{fill:#f0457d;}.cls-3{fill:#fff;}.cls-4{fill:#ffd44d;}.cls-5{fill:#0099f5;}.cls-6{fill:none;stroke:#231f20;stroke-miterlimit:10;stroke-width:1.5px;}</style></defs><g id="Layer_4" data-name="Layer 4"><rect class="cls-1" x="17.41" y="16.59" width="66.52" height="55.45"/><rect class="cls-2" x="13.81" y="16.59" width="66.52" height="55.45"/><rect class="cls-3" x="58.61" y="43.54" width="12.94" height="7.42"/><path class="cls-4" d="M88.51,66.18l-.26.28L77.74,77a4.42,4.42,0,0,1-6.24,0L60.73,66.18a9.63,9.63,0,0,1,6.82-16.43,9.53,9.53,0,0,1,6.81,2.82l.26.26.26-.26A9.63,9.63,0,0,1,88.51,66.18Z"/><rect class="cls-5" x="13.81" y="16.59" width="70.12" height="6.29"/><rect class="cls-3" x="22.46" y="29.47" width="12.94" height="7.42"/><rect class="cls-3" x="22.46" y="43.54" width="12.94" height="7.42"/><rect class="cls-3" x="22.46" y="57.62" width="12.94" height="7.42"/><rect class="cls-3" x="40.53" y="29.47" width="12.94" height="7.42"/><rect class="cls-3" x="40.53" y="43.54" width="12.94" height="7.42"/><rect class="cls-3" x="40.53" y="57.62" width="12.94" height="7.42"/><rect class="cls-3" x="58.61" y="29.47" width="12.94" height="7.42"/><polyline class="cls-6" points="83.92 49.75 83.92 22.88 83.92 16.59 80.32 16.59 17.41 16.59 13.81 16.59 13.81 22.88 13.81 72.04 17.41 72.04 67.03 72.04"/><line class="cls-6" x1="80.32" y1="44.31" x2="80.32" y2="16.59"/><path class="cls-6" d="M88.51,66.18l-.26.28L77.74,77a4.42,4.42,0,0,1-6.24,0L60.73,66.18a9.63,9.63,0,0,1,6.82-16.43,9.53,9.53,0,0,1,6.81,2.82l.26.26.26-.26A9.63,9.63,0,0,1,88.51,66.18Z"/></g></svg>