<svg xmlns="http://www.w3.org/2000/svg" viewBox="0 0 100 100"><g id="Layer_1" data-name="Layer 1"><path d="M56.89,34.33a14.21,14.21,0,0,0-11.13-.18h0l-.33.15c-.29.12-.57.25-.85.39l-.36.2c-.28.15-.55.3-.82.47L43,35.6c-.25.18-.51.35-.75.54l-.37.31c-.23.19-.46.38-.67.58s-.26.27-.39.4-.39.39-.57.6l-.41.52c-.15.19-.31.38-.45.58s-.31.48-.46.72-.21.31-.31.48c-.23.41-.45.85-.65,1.29a14.57,14.57,0,0,0-.94,3,15,15,0,0,0-.28,2.47.38.38,0,0,1,0,.1,14.34,14.34,0,0,0,8.53,13.33c.42.18.85.35,1.28.49.14,0,.29.08.43.12s.58.17.87.24l.51.1c.27.06.54.1.81.14l.53.06.79.05.53,0,.81,0c.17,0,.33,0,.49,0,.33,0,.64-.07,1-.12l.33,0c.41-.07.81-.17,1.21-.28a4.32,4.32,0,0,0,.51-.16c.24-.07.48-.14.71-.23l.56-.23c.2-.08.41-.17.61-.27l.57-.29.56-.31.55-.34.52-.36.53-.39c.17-.13.33-.28.49-.41s.55-.5.81-.77.36-.35.52-.54.29-.35.43-.53.23-.26.33-.4h0a14.74,14.74,0,0,0,1.64-2.78A14.31,14.31,0,0,0,56.89,34.33Z" fill="#ffd44d"/><path d="M49.44,74.34a6.53,6.53,0,0,0-5.11-.09h0l0,0a6.6,6.6,0,0,0-1.06.54l0,0a7.45,7.45,0,0,0-1,.75l0,0a5.65,5.65,0,0,0-.81.94h0a6.54,6.54,0,0,0-.63,1.13,6.64,6.64,0,0,0-.57,2.55A6.68,6.68,0,0,0,42,84.86a6.41,6.41,0,0,0,2.13,1.5h0a6.39,6.39,0,0,0,1,.33l.16,0a8,8,0,0,0,1,.15h.18a6.28,6.28,0,0,0,1,0l.1,0a6.22,6.22,0,0,0,1-.17h.06a6.08,6.08,0,0,0,.93-.34.75.75,0,0,0,.13-.06,5.89,5.89,0,0,0,.85-.47l.1-.07A6.69,6.69,0,0,0,52,84.34l0,0h0A6.76,6.76,0,0,0,52.8,83,6.58,6.58,0,0,0,49.44,74.34Z" fill="#db2868"/><path d="M82.52,27.62a1.3,1.3,0,0,0,.1-.15,5.93,5.93,0,0,0,.49-.84.69.69,0,0,1,0-.1,5.7,5.7,0,0,0,.33-.9.14.14,0,0,0,0-.07,6.27,6.27,0,0,0,.19-1,.77.77,0,0,1,0-.15,6.26,6.26,0,0,0,0-1s0-.08,0-.13a6.68,6.68,0,0,0-.46-2s0,0,0-.06h0a7.23,7.23,0,0,0-.72-1.3,6.57,6.57,0,0,0-11.85,2.84h0c0,.06,0,.11,0,.17s0,.28-.05.43v.19c0,.14,0,.29,0,.43a1.36,1.36,0,0,1,0,.2l0,.42c0,.08,0,.15,0,.23a2.7,2.7,0,0,0,.08.39,1.83,1.83,0,0,0,.06.25c0,.13.07.25.11.37s.07.19.11.29.07.2.12.3a3.78,3.78,0,0,0,.17.35c0,.08.08.16.12.24a6.65,6.65,0,0,0,.36.56A6.59,6.59,0,0,0,81,29.17h0a7.54,7.54,0,0,0,.8-.68l.11-.12A4.94,4.94,0,0,0,82.52,27.62Z" fill="#0099f5"/><path d="M27.8,20.66l0-.16a6.21,6.21,0,0,0-.25-.94l-.06-.17a7,7,0,0,0-.4-.88L27,18.42a6.23,6.23,0,0,0-.54-.8l0-.05a6.54,6.54,0,0,0-.68-.71l-.11-.1a5.7,5.7,0,0,0-.78-.59l-.1-.06a6.54,6.54,0,0,0-1.91-.79l-.06,0h0a6.57,6.57,0,0,0-6.06,11.12h0l.13.11.32.29.16.11c.11.09.22.18.34.26l.18.1.36.22a1.24,1.24,0,0,1,.2.1l.37.17.24.09c.12,0,.24.09.36.12a1.47,1.47,0,0,0,.3.08l.32.08c.12,0,.25,0,.38.06l.26,0c.22,0,.45,0,.67,0a6.59,6.59,0,0,0,6.58-6.58A7.19,7.19,0,0,0,27.8,20.66Z" fill="#ff9515"/><path d="M85.28,58.26s0-.1,0-.16a7.66,7.66,0,0,0-.25-.94,1.22,1.22,0,0,0-.07-.17,5.8,5.8,0,0,0-.4-.88.41.41,0,0,1-.05-.09,7.54,7.54,0,0,0-.55-.8.1.1,0,0,0,0,0,5.75,5.75,0,0,0-.68-.72l-.1-.09a7.26,7.26,0,0,0-.78-.59l-.11-.06a6.37,6.37,0,0,0-1.9-.79l-.06,0h0A6.58,6.58,0,0,0,74.21,64h0l.12.11c.11.1.21.2.33.29l.15.11.35.26.17.1.37.22.19.09.37.18.24.08a2.6,2.6,0,0,0,.36.13l.29.08.33.08c.12,0,.25,0,.37.06l.28,0q.33,0,.66,0a6.57,6.57,0,0,0,6.58-6.57A6,6,0,0,0,85.28,58.26Z" fill="#bc175a"/><path d="M27.8,62l0-.16a5.91,5.91,0,0,0-.25-.94l-.06-.17a7,7,0,0,0-.4-.88L27,59.73a6.23,6.23,0,0,0-.54-.8l0,0a6.64,6.64,0,0,0-.68-.72l-.11-.1a6.58,6.58,0,0,0-.78-.58l-.1-.07a6.68,6.68,0,0,0-1.91-.78l-.06,0h0a6.57,6.57,0,0,0-6.06,11.12h0l.13.11.32.28.15.12.35.25.17.11.37.22.2.09.37.18.24.09.36.12.3.08.32.08c.12,0,.25,0,.38.06l.26,0c.22,0,.45,0,.67,0a6.53,6.53,0,0,0,3.14-.79,6.16,6.16,0,0,0,1-.71,4.69,4.69,0,0,0,.47-.42,6.23,6.23,0,0,0,.8-1,4.86,4.86,0,0,0,.33-.54,6.15,6.15,0,0,0,.5-1.18,6.63,6.63,0,0,0,.3-1.95A7.19,7.19,0,0,0,27.8,62Z" fill="#0064f4"/></g><g id="Layer_2" data-name="Layer 2"><path d="M56.86,34.35a14.28,14.28,0,0,0-11.14-.18h0l-.33.16c-.29.12-.58.24-.86.39l-.36.2c-.27.15-.55.3-.82.47l-.35.25c-.26.17-.51.34-.76.54s-.24.21-.37.31-.45.37-.67.58-.25.27-.38.4a8.08,8.08,0,0,0-.57.6,5.21,5.21,0,0,0-.41.52,6.51,6.51,0,0,0-.46.58c-.16.23-.31.48-.46.72s-.21.31-.3.47a14.4,14.4,0,0,0-.66,1.3,15,15,0,0,0-.94,3,14.83,14.83,0,0,0-.28,2.47v.09a14.32,14.32,0,0,0,8.52,13.33,13.42,13.42,0,0,0,1.28.49l.43.13c.29.09.58.17.88.24l.5.1c.27,0,.54.1.81.13a4.78,4.78,0,0,0,.53.06l.79.06H51l.81,0,.5,0c.32,0,.64-.08,1-.13l.32,0c.41-.08.82-.17,1.22-.28l.51-.16.7-.23.56-.23.62-.27.56-.29.56-.31.55-.34.52-.37q.27-.18.54-.39l.48-.41c.28-.24.55-.5.81-.76s.36-.36.53-.55.29-.35.43-.52l.33-.41h0a14,14,0,0,0,1.65-2.79A14.32,14.32,0,0,0,56.86,34.35Z" fill="none" stroke="#231f20" stroke-linejoin="round" stroke-width="1.5"/><path d="M49.41,74.36a6.55,6.55,0,0,0-5.12-.08h0a6.27,6.27,0,0,0-1.06.55l0,0a6.89,6.89,0,0,0-1,.75l0,0a6.59,6.59,0,0,0-.81.94v0a6.58,6.58,0,0,0-.76,6.16A6.61,6.61,0,0,0,42,84.88a6.54,6.54,0,0,0,2.13,1.51h0a7.73,7.73,0,0,0,1,.34l.16,0a6.41,6.41,0,0,0,1,.16h.18a6.26,6.26,0,0,0,1,0h.11a6.1,6.1,0,0,0,.95-.17l.06,0a6,6,0,0,0,.93-.33l.13-.06a6.36,6.36,0,0,0,.85-.47l.11-.08A6.46,6.46,0,0,0,52,84.36l0,0h0a6.55,6.55,0,0,0-2.59-10Z" fill="none" stroke="#231f20" stroke-linejoin="round" stroke-width="1.5"/><path d="M82.49,27.65l.1-.15a7,7,0,0,0,.48-.84.42.42,0,0,0,0-.1,5.85,5.85,0,0,0,.34-.91.14.14,0,0,1,0-.06,6.37,6.37,0,0,0,.18-1,.59.59,0,0,0,0-.14,6.29,6.29,0,0,0,0-1,.53.53,0,0,0,0-.13,6.45,6.45,0,0,0-.46-2s0,0,0-.06h0a6.39,6.39,0,0,0-.72-1.3,6.57,6.57,0,0,0-11.85,2.83h0s0,.11,0,.17,0,.28,0,.42,0,.13,0,.19,0,.29,0,.44,0,.13,0,.2,0,.28,0,.42a1.7,1.7,0,0,0,0,.22c0,.13,0,.27.07.4l.07.25c0,.12.06.24.1.36s.07.19.11.29l.12.31.18.35a1.67,1.67,0,0,0,.12.23,6.65,6.65,0,0,0,.36.56,6.53,6.53,0,0,0,3.65,2.54,7,7,0,0,0,1.88.22A6.6,6.6,0,0,0,81,29.19h0a6.53,6.53,0,0,0,.8-.68l.12-.11A7.25,7.25,0,0,0,82.49,27.65Z" fill="none" stroke="#231f20" stroke-linejoin="round" stroke-width="1.5"/><path d="M27.76,20.69c0-.05,0-.11,0-.16a7.21,7.21,0,0,0-.25-.94,1.22,1.22,0,0,0-.07-.17,5.39,5.39,0,0,0-.4-.88.41.41,0,0,1-.05-.09,7.54,7.54,0,0,0-.55-.8l0-.06a6.5,6.5,0,0,0-.68-.71.94.94,0,0,1-.1-.1,7.16,7.16,0,0,0-.78-.58l-.11-.07a6.94,6.94,0,0,0-1.9-.79l-.06,0h0a6.58,6.58,0,0,0-6.06,11.12h0l.12.11c.11.1.21.19.33.28l.15.12c.11.09.23.17.35.25l.17.11.36.21.21.1.36.17a2.5,2.5,0,0,0,.25.09l.35.13.3.08.32.08.38.06.27,0q.33,0,.66,0a6.57,6.57,0,0,0,6.58-6.58A6,6,0,0,0,27.76,20.69Z" fill="none" stroke="#231f20" stroke-linejoin="round" stroke-width="1.5"/><path d="M85.25,58.29l0-.16a5.91,5.91,0,0,0-.25-.94L84.91,57a6.43,6.43,0,0,0-.41-.88.41.41,0,0,0,0-.09,6.23,6.23,0,0,0-.54-.8l0-.06a7.6,7.6,0,0,0-.68-.71l-.11-.1a5.64,5.64,0,0,0-.78-.58.41.41,0,0,0-.11-.07,6.64,6.64,0,0,0-1.9-.79l-.06,0h0a6.43,6.43,0,0,0-1.47-.17,6.57,6.57,0,0,0-4.58,11.29h0l.13.12.32.28.15.11.35.26.17.1a2.77,2.77,0,0,0,.37.22l.19.1.38.17a1.57,1.57,0,0,0,.23.09l.36.13.29.07a3.37,3.37,0,0,0,.34.09l.37,0,.27,0c.22,0,.44,0,.67,0a6.58,6.58,0,0,0,6.58-6.58A7.18,7.18,0,0,0,85.25,58.29Z" fill="none" stroke="#231f20" stroke-linejoin="round" stroke-width="1.5"/><path d="M27.76,62c0-.06,0-.11,0-.16a6.81,6.81,0,0,0-.25-.94.87.87,0,0,0-.07-.17,5.39,5.39,0,0,0-.4-.88.47.47,0,0,1-.05-.1,7.4,7.4,0,0,0-.55-.79l0-.06a6.5,6.5,0,0,0-.68-.71l-.11-.1a6.2,6.2,0,0,0-.77-.58l-.11-.07a6.37,6.37,0,0,0-1.9-.79l-.06,0h0a6.57,6.57,0,0,0-6.06,11.11h0l.12.12c.11.09.21.19.33.28a.83.83,0,0,0,.15.11l.35.26a1,1,0,0,0,.17.1l.36.22.21.1.36.17a2.5,2.5,0,0,0,.25.09l.35.13.3.08.32.08.38.06.27,0q.33,0,.66,0a6.62,6.62,0,0,0,3.14-.79,7.44,7.44,0,0,0,1.05-.71c.16-.14.32-.28.47-.43a7.5,7.5,0,0,0,.8-1q.18-.27.33-.54a7.2,7.2,0,0,0,.5-1.18,6.69,6.69,0,0,0,.29-2A6,6,0,0,0,27.76,62Z" fill="none" stroke="#231f20" stroke-linejoin="round" stroke-width="1.5"/><line x1="61.71" y1="37.8" x2="72.29" y2="28.23" fill="none" stroke="#231f20" stroke-linejoin="round" stroke-width="1.5"/><line x1="26.28" y1="26" x2="40.26" y2="38.06" fill="none" stroke="#231f20" stroke-linejoin="round" stroke-width="1.5"/><line x1="64.25" y1="53.08" x2="72.72" y2="56.73" fill="none" stroke="#231f20" stroke-linejoin="round" stroke-width="1.5"/><line x1="27.06" y1="59.82" x2="38.42" y2="54.06" fill="none" stroke="#231f20" stroke-linejoin="round" stroke-width="1.5"/><line x1="49.21" y1="61.6" x2="47.63" y2="73.77" fill="none" stroke="#231f20" stroke-linejoin="round" stroke-width="1.5"/></g></svg>