<svg id="Layer_1" data-name="Layer 1" xmlns="http://www.w3.org/2000/svg" viewBox="0 0 500 500"><defs><style>.cls-1{fill:#f0457d;}.cls-2{fill:#0099f5;}.cls-3{fill:#24285b;}.cls-4{fill:#0086f4;}.cls-5{fill:#f9bb0d;}.cls-6{fill:#fff;}.cls-7{fill:#ffd44d;}</style></defs><title>Cloud Computing Network</title><path class="cls-1" d="M307,378.24H284.1a3.5,3.5,0,0,1-3.5-3.5V126.38a3.5,3.5,0,0,1,3.5-3.5H307a3.5,3.5,0,0,1,0,7H287.6V371.24H307a3.5,3.5,0,0,1,0,7Z"/><path class="cls-1" d="M307,254.06H251a3.5,3.5,0,0,1,0-7h56a3.5,3.5,0,0,1,0,7Z"/><path class="cls-2" d="M53.26,291.36v30.2c0,25,41.7,45.28,93.16,45.28s93.14-20.28,93.14-45.28v-30.2Z"/><path class="cls-3" d="M239.56,291.36c0,25-41.69,45.29-93.14,45.29s-93.16-20.27-93.16-45.29,41.7-45.28,93.16-45.28S239.56,266.36,239.56,291.36Z"/><path class="cls-2" d="M53.26,254.79V285c0,25,41.7,45.27,93.16,45.27S239.56,310,239.56,285v-30.2Z"/><path class="cls-3" d="M239.56,254.79c0,25-41.69,45.28-93.14,45.28S53.26,279.8,53.26,254.79,95,209.5,146.42,209.5,239.56,229.78,239.56,254.79Z"/><path class="cls-2" d="M53.26,218.21v30.2c0,25,41.7,45.28,93.16,45.28s93.14-20.28,93.14-45.28v-30.2Z"/><path class="cls-3" d="M239.56,218.21c0,25-41.69,45.29-93.14,45.29s-93.16-20.27-93.16-45.29,41.7-45.29,93.16-45.29S239.56,193.21,239.56,218.21Z"/><path class="cls-2" d="M53.26,181.64v30.2c0,25,41.7,45.27,93.16,45.27s93.14-20.28,93.14-45.27v-30.2Z"/><path class="cls-4" d="M239.56,181.64c0,25-41.69,45.28-93.14,45.28s-93.16-20.27-93.16-45.28,41.7-45.29,93.16-45.29S239.56,156.63,239.56,181.64Z"/><path class="cls-5" d="M330.73,63.66l45.07.47a9.71,9.71,0,0,1,8.39,5.76l2.71,7,49.67.17a6.49,6.49,0,0,1,6.48,6.48l-2.82,65.73a6.19,6.19,0,0,1-6.18,6.17H333.25a6.19,6.19,0,0,1-6.17-6.17l-2.83-79.18A6.5,6.5,0,0,1,330.73,63.66Z"/><polygon class="cls-6" points="439.05 111.58 331.61 119.59 328.26 86.64 435.69 78.63 439.05 111.58"/><path class="cls-7" d="M439.87,87.24,392,87.67c-3.6,0-7.61,2.33-8.91,5.18l-2.88,6.34-52.76.15c-3.79,0-6.89,2.63-6.89,5.84l3,59.14c0,3.05,2.95,5.55,6.56,5.55H437.19c3.61,0,6.56-2.5,6.56-5.55l3-71.25C446.75,89.87,443.65,87.24,439.87,87.24Z"/><path class="cls-5" d="M330.73,199.32l45.07.48a9.69,9.69,0,0,1,8.39,5.76l2.71,7.05,49.67.16a6.5,6.5,0,0,1,6.48,6.48L440.22,285a6.19,6.19,0,0,1-6.17,6.18H333.25a6.19,6.19,0,0,1-6.17-6.18l-2.83-79.17A6.51,6.51,0,0,1,330.73,199.32Z"/><polygon class="cls-6" points="439.05 247.24 331.61 255.26 328.26 222.31 435.69 214.29 439.05 247.24"/><path class="cls-7" d="M439.87,222.91l-47.88.42c-3.6,0-7.61,2.34-8.91,5.19l-2.88,6.34-52.76.15c-3.79,0-6.89,2.62-6.89,5.83l3,59.14c0,3.06,2.95,5.56,6.56,5.56H437.19c3.61,0,6.56-2.5,6.56-5.56l3-71.24C446.75,225.53,443.65,222.91,439.87,222.91Z"/><path class="cls-5" d="M330.73,331.7l45.07.47a9.7,9.7,0,0,1,8.39,5.77l2.71,7,49.67.17a6.5,6.5,0,0,1,6.48,6.48l-2.82,65.73a6.19,6.19,0,0,1-6.18,6.17H333.25a6.19,6.19,0,0,1-6.17-6.17l-2.83-79.18A6.5,6.5,0,0,1,330.73,331.7Z"/><polygon class="cls-6" points="439.05 379.62 331.61 387.63 328.26 354.68 435.69 346.67 439.05 379.62"/><path class="cls-7" d="M439.87,355.28l-47.88.43c-3.6,0-7.61,2.33-8.91,5.18l-2.88,6.35-52.76.14c-3.79,0-6.89,2.63-6.89,5.84l3,59.14c0,3.05,2.95,5.55,6.56,5.55H437.19c3.61,0,6.56-2.5,6.56-5.55l3-71.25C446.75,357.91,443.65,355.28,439.87,355.28Z"/></svg>