<svg xmlns="http://www.w3.org/2000/svg" viewBox="0 0 100 100"><defs><style>.cls-1{fill:#231f20;}.cls-1,.cls-2,.cls-3,.cls-5{stroke:#231f20;}.cls-1,.cls-2,.cls-3,.cls-5,.cls-7{stroke-miterlimit:10;stroke-width:1.5px;}.cls-2{fill:#fff;}.cls-3{fill:#0099f5;}.cls-4{fill:#ffd44d;}.cls-5,.cls-7{fill:none;}.cls-6{fill:#f0457d;}.cls-7{stroke:#fff;}</style></defs><g id="Layer_2" data-name="Layer 2"><path class="cls-1" d="M16.22,20.44H83.78a4.51,4.51,0,0,1,4.51,4.51V71.12a3,3,0,0,1-3,3H14.7a3,3,0,0,1-3-3V24.95A4.51,4.51,0,0,1,16.22,20.44Z"/><path class="cls-2" d="M16.22,17.57H83.78a4.51,4.51,0,0,1,4.51,4.51V68.25a3,3,0,0,1-3,3H14.7a3,3,0,0,1-3-3V22.08A4.51,4.51,0,0,1,16.22,17.57Z"/><rect class="cls-3" x="43.28" y="72.04" width="13.44" height="5.83"/><rect class="cls-4" x="27.16" y="77.02" width="45.69" height="5.41"/><polyline class="cls-5" points="35.63 77.02 72.84 77.02 72.84 82.43 27.16 82.43 27.16 79.58"/><path class="cls-1" d="M65.29,39.74h-1.9A14.38,14.38,0,0,0,49.26,28h0A14.37,14.37,0,0,0,34.89,42.38v2.35H32.21a9.95,9.95,0,0,0,0,19.89H65.29a12.44,12.44,0,0,0,0-24.88Z"/><path class="cls-6" d="M65.29,35.93h-1.9A14.38,14.38,0,0,0,49.26,24.19h0A14.37,14.37,0,0,0,34.89,38.56v2.36H32.21a9.95,9.95,0,0,0,0,19.89H65.29a12.44,12.44,0,0,0,0-24.88Z"/><path class="cls-5" d="M39.41,28.09a14.36,14.36,0,0,0-4.52,10.47v2.36H32.21a9.95,9.95,0,0,0,0,19.89H65.29a12.44,12.44,0,0,0,0-24.88h-1.9A14.38,14.38,0,0,0,49.26,24.19h0"/><path class="cls-7" d="M44.71,43.39V37.82A5.29,5.29,0,0,1,50,32.53h0a5.29,5.29,0,0,1,5.29,5.29v1.44"/><path class="cls-7" d="M55.29,42.48v7A5.29,5.29,0,0,1,50,54.74h0a5.29,5.29,0,0,1-5.29-5.29V46.61"/><polyline class="cls-7" points="42.11 48.14 44.7 45.55 47.3 48.14"/><polyline class="cls-7" points="57.89 36.66 55.3 39.25 52.7 36.66"/></g></svg>