<svg id="Layer_1" data-name="Layer 1" xmlns="http://www.w3.org/2000/svg" viewBox="0 0 500 500"><title>39. Decision Making</title><path d="M234.7,276.48c0,8.42,3.32,16.95,8.59,21.94,2.58,2.44,5,3.9,7.3,4.32,3.43.64,7.58-1,10.57-4.26s5-7.7,6.29-13.66q.29-1.33.51-2.7a15.38,15.38,0,0,1-4.17,1.88c-8.33,2.28-27.53-3.35-28.3-14.23a27.89,27.89,0,0,0-.78,5.76C234.7,275.85,234.7,276.16,234.7,276.48Z" fill="none"/><path d="M154.15,307a94.82,94.82,0,0,0,4.75,14.58,63.3,63.3,0,0,1,61.75-49.83H221a39.67,39.67,0,0,1,2.51-10.44,44.66,44.66,0,0,1-19-23,52.94,52.94,0,0,1-2.34-10.62,26,26,0,0,1-8.69-3.11A39,39,0,0,1,182.68,215l-.72-.9a96.42,96.42,0,0,0-10.62,11.78A64.92,64.92,0,0,1,154.15,307Z" fill="none"/><path d="M308.83,187.25a6.64,6.64,0,0,0-4,1.27c.33,5.35.59,10.81.5,16.28,0,1.88-.1,3.71-.21,5.51.22-.11.44-.22.66-.35a25.68,25.68,0,0,0,6.9-6.26,21.45,21.45,0,0,0,2.45-3.52,9.77,9.77,0,0,0,.17-8.64A8,8,0,0,0,308.83,187.25Z" fill="none"/><path d="M223.62,138l1.38.33c14.45,3.38,29.39,6.88,42.47,2.82.61-.18,1.21-.39,1.81-.59a35,35,0,0,1,7.3-1.85c6.74-.78,13,1.76,17.55,3.62,2.68,1.09,6.35,2.58,9.2,5.74,5,5.52,5.43,13,5,19.85a60.53,60.53,0,0,0,7.51-8.18c3.17-3.91,2.36-10.25,1.5-17-.12-.9-.23-1.8-.34-2.69a35.76,35.76,0,0,0-2-9.5c-2.4-5.61-8.28-9.71-14.28-13.3-15-9-28.43-13.93-41-15.08-1.77-.16-3.54-.24-5.29-.24-12.91,0-24.9,4.34-32.82,12.05-.38.37-.76.76-1.14,1.14a29.36,29.36,0,0,1-6.65,5.45,30.34,30.34,0,0,1-4.41,1.91,22.94,22.94,0,0,0-2.18.87c-1.78.89-2.41,2-4,4.92l-.23.45h0c-.43.82-.9,1.7-1.45,2.61-.92,1.55-1.84,3-2.73,4.33-2.43,3.73-4.35,6.67-5.19,10.51A24,24,0,0,0,196,163.08a28,28,0,0,0,4.8,6.06c1-5,2-10.2,2.26-11.49,1.58-8.89,4.61-14.7,9.25-17.76A14.21,14.21,0,0,1,223.62,138Z" fill="none"/><path d="M239.84,253.34c15.91,4.51,34.63-2.62,43.53-16.56,5.16-8.09,7.76-18.62,8-32.19.1-6.7-.35-13.35-.82-20.38-.36-5.48-.74-11.14-.84-16.81l0-1.34c-.05-4.12-.11-8-1.39-11-3.36-1.36-7.07-2.79-10.08-2.44a24,24,0,0,0-4.45,1.21c-.7.24-1.41.47-2.12.69-16.72,5.19-34.3,1.07-49.81-2.56l-1.37-.32c-.7.75-1.35,1.54-2,2.35a30,30,0,0,0-1.65,6.09c-.18,1-1.3,6.75-2.42,12.3q-.21,1.05-.42,2.07c0,.8.05,1.6.08,2.41.06,1.91.13,3.89.15,5.9.11,14.45.51,26.08,1.24,36.6.35,5.06.78,10,2.28,14.3C220.88,242.85,229.35,250.38,239.84,253.34Zm1.1-61.75a7,7,0,1,1,13.91,1.59c-.33,2.87-.53,5.78-.6,8.68a3.62,3.62,0,0,0,.4.13,7,7,0,0,1,.29,14l-.59,0a19.09,19.09,0,0,1-7.16-1.87c-.53-.22-1.33-.55-1.61-.62a7,7,0,0,1-5.32-6.62A110.15,110.15,0,0,1,240.94,191.59Z" fill="none"/><path d="M197.35,189.64a8,8,0,0,0-6.47,4.29,9.78,9.78,0,0,0,.17,8.63,21.21,21.21,0,0,0,2.45,3.52,25.58,25.58,0,0,0,6.9,6.27c.21.12.41.22.62.32-.36-6.8-.59-14.14-.73-22.37A6.45,6.45,0,0,0,197.35,189.64Z" fill="none"/><path d="M312.72,222.12a25.87,25.87,0,0,1-9.76,3.27,60.74,60.74,0,0,1-7.79,18.92,51.64,51.64,0,0,1-13.83,14.38l.18.92A71.65,71.65,0,0,1,282.71,272a63.32,63.32,0,0,1,55.86,46.76,95.83,95.83,0,0,0,5-18.64,65,65,0,0,1-13.22-66.51,97.29,97.29,0,0,0-12-15.54A32.62,32.62,0,0,1,312.72,222.12Z" fill="none"/><path d="M326.69,339.32v-.06c0-.05,0-.1,0-.16v-4.2a49.24,49.24,0,0,0-45.19-49c-.12.63-.22,1.27-.36,1.9-1.86,8.57-5,15.18-9.7,20.21a26.85,26.85,0,0,1-19.37,8.87,22,22,0,0,1-4.05-.37c-4.95-.93-9.77-3.59-14.34-7.91-6-5.7-10.27-13.95-12-22.88h-1a49.24,49.24,0,0,0-49.18,49.19v8.18s0,.09,0,.13c.38.5.77,1,1.18,1.48a96.54,96.54,0,0,0,150.78.38h0c1-1.22,1.94-2.47,2.86-3.74l.55-.75h-.33A5,5,0,0,0,326.69,339.32Z" fill="#98f0f9"/><path d="M263.79,284a15.38,15.38,0,0,0,4.17-1.88,57.84,57.84,0,0,0,.3-16.67,54.45,54.45,0,0,1-18.4,3.26,51,51,0,0,1-13.52-1.81,25.82,25.82,0,0,0-.85,2.87C236.26,280.65,255.46,286.28,263.79,284Z" fill="#98f0f9"/><path d="M343.55,300.07a95.83,95.83,0,0,1-5,18.64A63.32,63.32,0,0,0,282.71,272a71.65,71.65,0,0,0-1.19-12.34l-.18-.92a51.64,51.64,0,0,0,13.83-14.38A60.74,60.74,0,0,0,303,225.39a25.87,25.87,0,0,0,9.76-3.27,32.62,32.62,0,0,0,5.63-4.1,97.29,97.29,0,0,1,12,15.54,65.71,65.71,0,0,1,7.32-14.16,111.66,111.66,0,0,0-10.37-12.28c.1-.18.2-.35.3-.54a23.86,23.86,0,0,0,.19-21.4,22.06,22.06,0,0,0-8-8.7,88.74,88.74,0,0,0,7-7.9c6.93-8.57,5.58-19.1,4.49-27.56-.11-.86-.22-1.71-.31-2.55-.54-4.56-1.18-9-3-13.35-4-9.32-12.32-15.25-19.95-19.82-16.87-10.11-32.22-15.67-46.92-17-18.89-1.73-37.26,4.15-49.14,15.71-.45.44-.9.89-1.34,1.34a18.53,18.53,0,0,1-3.5,3.06,19.14,19.14,0,0,1-2.4,1,34.5,34.5,0,0,0-3.64,1.5c-5.89,2.94-8.22,7.35-10.09,10.89l-.23.43c-.35.66-.71,1.33-1.12,2-.77,1.3-1.58,2.54-2.43,3.85-2.83,4.33-5.74,8.81-7.14,15.15A38.22,38.22,0,0,0,183.82,170a40.44,40.44,0,0,0,5.48,7.37,22.16,22.16,0,0,0-10.89,10.18,23.28,23.28,0,0,0-2.3,12.94,111.26,111.26,0,0,0-13,13.22,64.88,64.88,0,0,1,8.24,12.12A96.42,96.42,0,0,1,182,214.07l.72.9a39,39,0,0,0,10.78,9.54,26,26,0,0,0,8.69,3.11,52.94,52.94,0,0,0,2.34,10.62,44.66,44.66,0,0,0,19,23A39.67,39.67,0,0,0,221,271.71h-.31a63.3,63.3,0,0,0-61.75,49.83A94.82,94.82,0,0,1,154.15,307a65.59,65.59,0,0,1-12.36,7.77,110.85,110.85,0,0,0,68.51,73.71,109.49,109.49,0,0,0,20,5.22c5.4.89,25.47,1.29,30.15.78a110.74,110.74,0,0,0,95.28-84A65.6,65.6,0,0,1,343.55,300.07Zm-17.26,41.25c-.92,1.27-1.88,2.52-2.86,3.74h0a96.54,96.54,0,0,1-150.78-.38c-.41-.49-.8-1-1.18-1.48,0,0,0-.09,0-.13V334.9a49.24,49.24,0,0,1,49.18-49.19h1c1.77,8.93,6,17.18,12,22.88,4.57,4.32,9.39,7,14.34,7.91a22,22,0,0,0,4.05.37A26.85,26.85,0,0,0,271.43,308c4.67-5,7.84-11.64,9.7-20.21.14-.63.24-1.27.36-1.9a49.24,49.24,0,0,1,45.19,49v4.2c0,.06,0,.11,0,.16v.06a5,5,0,0,1-.18,1.26h.33Zm-90.8-71.55a25.82,25.82,0,0,1,.85-2.87,51,51,0,0,0,13.52,1.81,54.45,54.45,0,0,0,18.4-3.26,57.84,57.84,0,0,1-.3,16.67q-.22,1.36-.51,2.7c-1.29,6-3.41,10.56-6.29,13.66s-7.14,4.9-10.57,4.26c-2.26-.42-4.72-1.88-7.3-4.32-5.27-5-8.59-13.52-8.59-21.94,0-.32,0-.63,0-1A27.89,27.89,0,0,1,235.49,269.77Zm79.64-69.59a21.45,21.45,0,0,1-2.45,3.52,25.68,25.68,0,0,1-6.9,6.26c-.22.13-.44.24-.66.35.11-1.8.19-3.63.21-5.51.09-5.47-.17-10.93-.5-16.28a6.64,6.64,0,0,1,4-1.27,8,8,0,0,1,6.47,4.29A9.77,9.77,0,0,1,315.13,200.18ZM200.4,212.35a25.58,25.58,0,0,1-6.9-6.27,21.21,21.21,0,0,1-2.45-3.52,9.78,9.78,0,0,1-.17-8.63,8,8,0,0,1,6.47-4.29,6.45,6.45,0,0,1,2.94.66c.14,8.23.37,15.57.73,22.37C200.81,212.57,200.61,212.47,200.4,212.35Zm2.64-54.7c-.23,1.29-1.24,6.46-2.26,11.49a28,28,0,0,1-4.8-6.06,24,24,0,0,1-2.33-16.85c.84-3.84,2.76-6.78,5.19-10.51.89-1.37,1.81-2.78,2.73-4.33.55-.91,1-1.79,1.45-2.61h0l.23-.45c1.57-3,2.2-4,4-4.92a22.94,22.94,0,0,1,2.18-.87,30.34,30.34,0,0,0,4.41-1.91,29.36,29.36,0,0,0,6.65-5.45c.38-.38.76-.77,1.14-1.14,7.92-7.71,19.91-12.05,32.82-12.05,1.75,0,3.52.08,5.29.24,12.56,1.15,26,6.08,41,15.08,6,3.59,11.88,7.69,14.28,13.3a35.76,35.76,0,0,1,2,9.5c.11.89.22,1.79.34,2.69.86,6.72,1.67,13.06-1.5,17a60.53,60.53,0,0,1-7.51,8.18c.43-6.88,0-14.33-5-19.85-2.85-3.16-6.52-4.65-9.2-5.74-4.56-1.86-10.81-4.4-17.55-3.62a35,35,0,0,0-7.3,1.85c-.6.2-1.2.41-1.81.59-13.08,4.06-28,.56-42.47-2.82l-1.38-.33a14.21,14.21,0,0,0-11.33,1.86C207.65,143,204.62,148.76,203,157.65Zm14.69,76c-1.5-4.35-1.93-9.24-2.28-14.3-.73-10.52-1.13-22.15-1.24-36.6,0-2-.09-4-.15-5.9,0-.81-.06-1.61-.08-2.41q.21-1,.42-2.07c1.12-5.55,2.24-11.29,2.42-12.3a30,30,0,0,1,1.65-6.09c.62-.81,1.27-1.6,2-2.35l1.37.32c15.51,3.63,33.09,7.75,49.81,2.56.71-.22,1.42-.45,2.12-.69a24,24,0,0,1,4.45-1.21c3-.35,6.72,1.08,10.08,2.44,1.28,3,1.34,6.85,1.39,11l0,1.34c.1,5.67.48,11.33.84,16.81.47,7,.92,13.68.82,20.38-.21,13.57-2.81,24.1-8,32.19-8.9,13.94-27.62,21.07-43.53,16.56C229.35,250.38,220.88,242.85,217.73,233.69Z" fill="#251ac7"/><path d="M245.58,213.51c.28.07,1.08.4,1.61.62a19.09,19.09,0,0,0,7.16,1.87l.59,0a7,7,0,0,0-.29-14,3.62,3.62,0,0,1-.4-.13c.07-2.9.27-5.81.6-8.68a7,7,0,1,0-13.91-1.59,110.15,110.15,0,0,0-.68,15.3A7,7,0,0,0,245.58,213.51Z" fill="#251ac7"/><path d="M391.4,191a65,65,0,0,0-53.75,28.44,65.71,65.71,0,0,0-7.32,14.16,65,65,0,0,0,13.22,66.51A65.6,65.6,0,0,0,355.7,310.4,65.06,65.06,0,1,0,391.4,191Zm0,116.14A51.07,51.07,0,1,1,442.47,256,51.13,51.13,0,0,1,391.4,307.1Z" fill="#251ac7"/><path d="M178.79,256a65.08,65.08,0,1,0-37,58.7,65.42,65.42,0,0,0,37-58.7ZM62.64,256a51.08,51.08,0,1,1,51.07,51.07A51.13,51.13,0,0,1,62.64,256Z" fill="#251ac7"/><path d="M139.5,281.89a7,7,0,0,0,0-9.9l-17-17,18.14-18.14a7,7,0,1,0-9.9-9.9l-18.14,18.14L94.45,226.94a7,7,0,1,0-9.9,9.9L102.69,255l-17,17a7,7,0,0,0,9.9,9.9l17-17,17,17a7,7,0,0,0,9.9,0Z" fill="#251ac7"/><path d="M426,236.43a7,7,0,0,0-9.86-.92l-33.6,27.83-9.15-13A7,7,0,1,0,362,258.45l13.52,19.15a7,7,0,0,0,4.79,2.9,7.26,7.26,0,0,0,.93.06,7,7,0,0,0,4.46-1.61l39.42-32.66A7,7,0,0,0,426,236.43Z" fill="#251ac7"/></svg>