<svg id="Layer_1" data-name="Layer 1" xmlns="http://www.w3.org/2000/svg" viewBox="0 0 500 500"><defs><style>.cls-1{fill:#f2f2f2;}.cls-2{fill:#e2e2e2;}.cls-3{fill:#f0457d;}.cls-4{fill:#db2868;}.cls-5{fill:#fff;}</style></defs><title>Contact Us</title><path class="cls-1" d="M436.45,196.35H244.69a21.05,21.05,0,0,0-21.05,21.05V351.83a21.05,21.05,0,0,0,21.06,21.05h128l17.53,27a2.79,2.79,0,0,0,4.6.11l19.56-27.14h22.1a21.05,21.05,0,0,0,21.06-21.05V217.4A21.05,21.05,0,0,0,436.45,196.35Z"/><path class="cls-2" d="M232.66,360.27a21,21,0,0,1-7.71-1.46,21.07,21.07,0,0,0,19.87,14.07H372.66l-8.18-12.61Z"/><path class="cls-2" d="M444.29,197.81a21.22,21.22,0,0,1,1.19,7V339.22a21.06,21.06,0,0,1-21.06,21H402.31l-19.56,27.14a2.66,2.66,0,0,1-.32.35l7.89,12.15a2.78,2.78,0,0,0,4.59.11l19.56-27.14h22.11a21.05,21.05,0,0,0,21.05-21.05V217.4A21.06,21.06,0,0,0,444.29,197.81Z"/><path class="cls-3" d="M332.67,91.4H69.07a28.94,28.94,0,0,0-28.94,28.94V305.12a29,29,0,0,0,28.94,28.95H133l24.1,37.15a3.82,3.82,0,0,0,6.31.16l26.89-37.31H332.67a29,29,0,0,0,28.94-28.95V120.34A28.94,28.94,0,0,0,332.67,91.4Z"/><path class="cls-4" d="M52.53,316.73a28.92,28.92,0,0,1-10.6-2,29,29,0,0,0,27.31,19.35H133l-11.24-17.34Z"/><path class="cls-4" d="M343.43,93.41a28.74,28.74,0,0,1,1.64,9.59V287.79a29,29,0,0,1-28.95,28.94H173.77L146.88,354a3.94,3.94,0,0,1-.44.47l10.84,16.71a3.82,3.82,0,0,0,6.31.16l26.89-37.31H332.83a28.94,28.94,0,0,0,28.94-28.95V120.34A28.94,28.94,0,0,0,343.43,93.41Z"/><path class="cls-5" d="M110.48,190.13v15.93h25.29v8.23H110.48v20h-9.72V182H139v8.16Z"/><path class="cls-5" d="M203,222.21H176.82l-5.16,12.12h-10L185.2,182h9.57l23.64,52.36H208.23Zm-3.22-7.63-9.87-22.88-9.8,22.88Z"/><path class="cls-5" d="M301,239.56a17.37,17.37,0,0,1-6.1,4.64,18.19,18.19,0,0,1-7.59,1.57,20.45,20.45,0,0,1-9.88-2.43,44.87,44.87,0,0,1-10.24-8.41,28.46,28.46,0,0,1-13-4.23,25.46,25.46,0,0,1-9-9.5,27.91,27.91,0,0,1,.45-26.85,25.71,25.71,0,0,1,10.09-9.64,31.7,31.7,0,0,1,28.88,0,25.78,25.78,0,0,1,10.09,9.61,26.48,26.48,0,0,1,3.67,13.83,26.8,26.8,0,0,1-2.47,11.48,26,26,0,0,1-6.88,9A27.39,27.39,0,0,1,278.76,234a15.67,15.67,0,0,0,4.27,3.36,9.84,9.84,0,0,0,4.48,1.05,11.79,11.79,0,0,0,9-4.19Zm-46.83-21.94a17.05,17.05,0,0,0,6.59,6.57,20,20,0,0,0,18.84,0,17.12,17.12,0,0,0,6.59-6.57,19.94,19.94,0,0,0,0-18.93,17.08,17.08,0,0,0-6.59-6.58,20,20,0,0,0-18.84,0,17,17,0,0,0-6.59,6.58,19.94,19.94,0,0,0,0,18.93Z"/></svg>