<svg id="Layer_1" data-name="Layer 1" xmlns="http://www.w3.org/2000/svg" viewBox="0 0 500 500"><title>32. idea</title><path d="M284.34,127.15s78.44,69.46,49.84,122.76C297,319.17,284.34,366.47,284.34,366.47S315.86,384.4,319,347.05s17.74-68.42,26.19-78.56S372.19,153.05,284.34,127.15Z" fill="#98f0f9"/><path d="M276.46,378.3l-40.55,13.51S230.3,431.49,251.13,437c0,0-42.87,4-43.69-43.68V381.73Z" fill="#98f0f9"/><path d="M176,339.64a54.34,54.34,0,0,0,17.44,39.91v13.76a57.69,57.69,0,0,0,115.37,0V378.49a54.34,54.34,0,0,0,16.34-38.86,74.42,74.42,0,0,1,16-45.82,115.12,115.12,0,1,0-180.8.33A73.43,73.43,0,0,1,176,339.64Zm76-218.06c54.57.76,99.29,45.79,99.68,100.37a100,100,0,0,1-21.59,63.2,88.53,88.53,0,0,0-19,54.48,40.33,40.33,0,0,1-11.38,28.1H269.13q-.48-4-1-8.17c-3.57-28.6-8-64-6.51-90.82,1.29-.45,2.57-1,3.83-1.54,10.76-4.92,18.41-14.35,20-24.6,1.18-7.75-1.73-14.86-7.42-18.1a13.93,13.93,0,0,0-11.82-.93c-6.86,2.48-11.54,9.37-13.47,14.52a78.66,78.66,0,0,0-4.24,19.35c-1.61.2-3.31.33-5.12.4a77.42,77.42,0,0,0-2.44-12.6c-3.7-12.87-14.29-24.51-27.41-21.86-9.91,2-17,12.71-15.38,23.39,1.25,8.5,7.25,16.15,16.07,20.45a47.28,47.28,0,0,0,15.94,4.21c0,3.33,0,6.66-.05,9.95l-1.18,85.36a8.09,8.09,0,0,0,.07,1H201.38A40.32,40.32,0,0,1,190,339.64a87.49,87.49,0,0,0-18.73-54.2,101.12,101.12,0,0,1,79.29-163.87Zm42.8,260.15v11.58a43.69,43.69,0,0,1-87.37,0V381.73Zm-50.69-109.9c1.09-.05,2.2-.12,3.35-.21-1,27.48,3.28,61.76,6.76,89.67.27,2.2.54,4.33.8,6.44h-12.2a5.29,5.29,0,0,0,.06-.8l1.17-85.36C244.11,278.42,244.15,275.16,244.12,271.83Zm19.19-19.45a53.52,53.52,0,0,1,2.5-9.38c1.38-3.7,4.24-6.12,5.26-6.32a5.59,5.59,0,0,1,.5,3.81C270.9,244.91,267.78,249.29,263.31,252.38Zm-34.16,4.83a30.22,30.22,0,0,1-8.83-2.57c-4.59-2.24-7.79-6-8.36-9.9-.49-3.32,1.65-7.11,4.3-7.64a3.89,3.89,0,0,1,.83-.08c4.15,0,8.6,6,10.36,12.09A62.6,62.6,0,0,1,229.15,257.21Z" fill="#251ac7"/><path d="M242.12,85.53a7,7,0,0,0,7-7V56a7,7,0,0,0-14,0V78.53A7,7,0,0,0,242.12,85.53Z" fill="#251ac7"/><path d="M89.18,132.54A137.94,137.94,0,0,0,126,152.69a7.12,7.12,0,0,0,2.39.42,7,7,0,0,0,2.38-13.59,123.49,123.49,0,0,1-33.06-18.1,7,7,0,0,0-8.51,11.12Z" fill="#251ac7"/><path d="M387.24,152.89a7,7,0,0,0,4.27-1.45,144.86,144.86,0,0,0,28.59-29.35,7,7,0,1,0-11.3-8.25A130.9,130.9,0,0,1,383,140.35a7,7,0,0,0,4.28,12.54Z" fill="#251ac7"/><path d="M80.94,297.76a7,7,0,0,0,9.87-.65,25.05,25.05,0,0,1,17.56-8.36,7,7,0,1,0-.52-14,38.78,38.78,0,0,0-27.57,13.12A7,7,0,0,0,80.94,297.76Z" fill="#251ac7"/><path d="M382.3,287.7a74.72,74.72,0,0,1,19.45,12.48A7,7,0,0,0,411,289.7,88.87,88.87,0,0,0,388,274.89a7,7,0,0,0-5.66,12.81Z" fill="#251ac7"/></svg>