<svg xmlns="http://www.w3.org/2000/svg" viewBox="0 0 500 500"><title>33. Opinion</title><g id="Layer_5" data-name="Layer 5"><path d="M82.13,423.4h56.42l-14.08,44.69h14.08L186,423.4h70.39A24.58,24.58,0,0,0,281,398.82v-57a24.57,24.57,0,0,0-24.58-24.58H82.13a24.58,24.58,0,0,0-24.59,24.58v57A24.59,24.59,0,0,0,82.13,423.4Z" fill="#1269ef"/><path d="M457,286.84H400.55v44.69H387l-34-44.69H282.68a24.58,24.58,0,0,1-24.59-24.58v-57a24.59,24.59,0,0,1,24.59-24.58H457a24.58,24.58,0,0,1,24.58,24.58v57A24.57,24.57,0,0,1,457,286.84Z" fill="#b91d5b"/><path d="M84.94,142.84h56.42l-16.89,44.69h16.89l47.49-44.69h70.38a24.59,24.59,0,0,0,24.59-24.59v-57a24.59,24.59,0,0,0-24.59-24.59H84.94A24.59,24.59,0,0,0,60.36,61.28v57A24.59,24.59,0,0,0,84.94,142.84Z" fill="#fc932d"/><path d="M68.05,423.4h56.42v44.69L172,423.4h70.38a24.59,24.59,0,0,0,24.59-24.58v-57a24.58,24.58,0,0,0-24.59-24.58H68.05a24.57,24.57,0,0,0-24.58,24.58v57A24.58,24.58,0,0,0,68.05,423.4Z" fill="#1a9af1"/><path d="M68.05,142.84h56.42v44.69L172,142.84h70.38a24.59,24.59,0,0,0,24.59-24.59v-57a24.59,24.59,0,0,0-24.59-24.59H68.05A24.58,24.58,0,0,0,43.47,61.28v57A24.58,24.58,0,0,0,68.05,142.84Z" fill="#fdd259"/><path d="M443.45,286.84H387v44.69l-47.48-44.69H269.16a24.58,24.58,0,0,1-24.58-24.58v-57a24.59,24.59,0,0,1,24.58-24.58H443.45A24.59,24.59,0,0,1,468,205.28v57A24.58,24.58,0,0,1,443.45,286.84Z" fill="#ed487e"/><circle cx="104.71" cy="74.26" r="18.58" fill="#1a9af1"/><path d="M74.17,116.11a31,31,0,0,1,60.19.58" fill="#1a9af1"/><line x1="183.1" y1="73.23" x2="225.9" y2="73.23" fill="none" stroke="#000" stroke-linecap="round" stroke-linejoin="round" stroke-width="14"/><line x1="183.1" y1="104.76" x2="212.38" y2="104.76" fill="none" stroke="#000" stroke-linecap="round" stroke-linejoin="round" stroke-width="14"/><circle cx="409.52" cy="216.82" r="18.58" fill="#fff"/><path d="M440.06,258.68a31,31,0,0,0-60.19.57" fill="#fff"/><line x1="331.13" y1="215.79" x2="288.33" y2="215.79" fill="none" stroke="#000" stroke-linecap="round" stroke-linejoin="round" stroke-width="14"/><line x1="331.13" y1="247.33" x2="301.85" y2="247.33" fill="none" stroke="#000" stroke-linecap="round" stroke-linejoin="round" stroke-width="14"/><circle cx="111.08" cy="353.66" r="18.58" fill="#fdd259"/><path d="M80.54,395.51a31,31,0,0,1,60.19.58" fill="#fdd259"/><line x1="189.47" y1="352.63" x2="232.27" y2="352.63" fill="none" stroke="#000" stroke-linecap="round" stroke-linejoin="round" stroke-width="14"/><line x1="189.47" y1="384.17" x2="218.75" y2="384.17" fill="none" stroke="#000" stroke-linecap="round" stroke-linejoin="round" stroke-width="14"/></g><g id="Layer_7" data-name="Layer 7"><path d="M281.24,342a24.58,24.58,0,0,0-24.58-24.59H82.37" fill="none" stroke="#231f20" stroke-linecap="round" stroke-linejoin="round" stroke-width="5.01"/><path d="M124.71,468.28h14.08l47.48-44.69h70.39A24.58,24.58,0,0,0,281.24,399V372.67" fill="none" stroke="#231f20" stroke-linecap="round" stroke-linejoin="round" stroke-width="5.01"/><path d="M481.79,228.51v33.94A24.58,24.58,0,0,1,457.21,287H400.79v44.69H387.28" fill="none" stroke="#231f20" stroke-linecap="round" stroke-linejoin="round" stroke-width="5.01"/><path d="M282.92,180.89H457.21a24.57,24.57,0,0,1,24.58,24.58" fill="none" stroke="#231f20" stroke-linecap="round" stroke-linejoin="round" stroke-width="5.01"/><path d="M284.06,61.46a24.59,24.59,0,0,0-24.58-24.58H85.19" fill="none" stroke="#231f20" stroke-linecap="round" stroke-linejoin="round" stroke-width="5.01"/><path d="M124.71,187.71H141.6L189.09,143h70.39a24.58,24.58,0,0,0,24.58-24.58v-38" fill="none" stroke="#231f20" stroke-linecap="round" stroke-linejoin="round" stroke-width="5.01"/><path d="M267.17,342a24.59,24.59,0,0,0-24.59-24.59H68.29A24.58,24.58,0,0,0,43.71,342v57a24.58,24.58,0,0,0,24.58,24.59h56.42v44.69l47.49-44.69h70.38A24.59,24.59,0,0,0,267.17,399V371.54" fill="none" stroke="#231f20" stroke-linecap="round" stroke-linejoin="round" stroke-width="5.01"/><path d="M267.17,61.46a24.59,24.59,0,0,0-24.59-24.58H68.29A24.58,24.58,0,0,0,43.71,61.46v57A24.57,24.57,0,0,0,68.29,143h56.42v44.69L172.2,143h70.38a24.58,24.58,0,0,0,24.59-24.58V86" fill="none" stroke="#231f20" stroke-linecap="round" stroke-linejoin="round" stroke-width="5.01"/><path d="M468.28,229.63v32.82A24.59,24.59,0,0,1,443.69,287H387.28v44.69L339.79,287H269.4a24.59,24.59,0,0,1-24.58-24.58v-57a24.58,24.58,0,0,1,24.58-24.58H443.69a24.58,24.58,0,0,1,24.59,24.58" fill="none" stroke="#231f20" stroke-linecap="round" stroke-linejoin="round" stroke-width="5.01"/><circle cx="104.95" cy="74.44" r="18.58" fill="none" stroke="#231f20" stroke-linecap="round" stroke-linejoin="round" stroke-width="5.01"/><path d="M74.41,116.3a31,31,0,0,1,60.19.57" fill="none" stroke="#231f20" stroke-linecap="round" stroke-linejoin="round" stroke-width="5.01"/><line x1="183.34" y1="73.42" x2="226.14" y2="73.42" fill="none" stroke="#231f20" stroke-linecap="round" stroke-linejoin="round" stroke-width="5.01"/><line x1="183.34" y1="104.95" x2="212.62" y2="104.95" fill="none" stroke="#231f20" stroke-linecap="round" stroke-linejoin="round" stroke-width="5.01"/><circle cx="409.76" cy="217.01" r="18.58" fill="none" stroke="#231f20" stroke-linecap="round" stroke-linejoin="round" stroke-width="5.01"/><path d="M440.3,258.86a31,31,0,0,0-60.19.58" fill="none" stroke="#231f20" stroke-linecap="round" stroke-linejoin="round" stroke-width="5.01"/><line x1="331.37" y1="215.98" x2="288.57" y2="215.98" fill="none" stroke="#231f20" stroke-linecap="round" stroke-linejoin="round" stroke-width="5.01"/><line x1="331.37" y1="247.52" x2="302.09" y2="247.52" fill="none" stroke="#231f20" stroke-linecap="round" stroke-linejoin="round" stroke-width="5.01"/><circle cx="111.32" cy="353.85" r="18.58" fill="none" stroke="#231f20" stroke-linecap="round" stroke-linejoin="round" stroke-width="5.01"/><path d="M80.78,395.7a31,31,0,0,1,60.19.58" fill="none" stroke="#231f20" stroke-linecap="round" stroke-linejoin="round" stroke-width="5.01"/><line x1="189.71" y1="352.82" x2="232.51" y2="352.82" fill="none" stroke="#231f20" stroke-linecap="round" stroke-linejoin="round" stroke-width="5.01"/><line x1="189.71" y1="384.35" x2="219" y2="384.35" fill="none" stroke="#231f20" stroke-linecap="round" stroke-linejoin="round" stroke-width="5.01"/></g></svg>