<?xml version="1.0" encoding="UTF-8"?><svg id="Layer_1" xmlns="http://www.w3.org/2000/svg" viewBox="0 0 500 500"><defs><style>.cls-1{fill:#fff;}.cls-2{fill:#f0457d;}.cls-3{fill:#24285b;}.cls-4{fill:#ffd44d;}.cls-5{opacity:.09;}</style></defs><g><g><path class="cls-4" d="M434.75,208H228.09c-12.53,0-22.69,10.16-22.69,22.69v144.87c0,12.53,10.16,22.69,22.69,22.69h82.05l18.89,29.13c1.15,1.77,3.72,1.83,4.95,.12l21.08-29.25h79.69c12.53,0,22.69-10.16,22.69-22.69V230.69c0-12.53-10.16-22.69-22.69-22.69Z"/><path class="cls-5" d="M301.32,384.67l8.82,13.59h-81.92c-9.89,0-18.31-6.33-21.41-15.17,2.57,1.01,5.38,1.58,8.31,1.58h86.21Zm141.87-175.09c.83,2.36,1.28,4.89,1.28,7.52v144.87c0,12.53-10.16,22.69-22.69,22.69h-79.69l-21.08,29.25c-.1,.14-.23,.25-.35,.37l8.5,13.1c1.15,1.77,3.72,1.83,4.95,.12l21.08-29.25h79.69c12.53,0,22.69-10.16,22.69-22.69V230.69c0-9.6-5.96-17.8-14.38-21.11Z"/></g><path class="cls-3" d="M359.67,349.46l-8.59-21.07h-39.72l-8.59,21.07h-21.07l40.26-94.61h19.06l40.26,94.61h-21.61Zm-28.45-69.78l-12.48,30.46h24.96l-12.48-30.46Z"/></g><g><path class="cls-2" d="M65.12,292h206.66c12.53,0,22.69-10.16,22.69-22.69V124.43c0-12.53-10.16-22.69-22.69-22.69h-82.05l-18.89-29.13c-1.15-1.77-3.72-1.83-4.95-.12l-21.08,29.25H65.12c-12.53,0-22.69,10.16-22.69,22.69v144.87c0,12.53,10.16,22.69,22.69,22.69Z"/><path class="cls-5" d="M52.15,278.9h206.66c12.53,0,22.69-10.16,22.69-22.69V111.33c0-2.83-.52-5.54-1.47-8.04,8.45,3.3,14.44,11.52,14.44,21.14v144.87c0,12.53-10.16,22.69-22.69,22.69H65.12c-9.7,0-17.98-6.09-21.22-14.65,2.56,1,5.34,1.55,8.25,1.55Z"/><path class="cls-1" d="M205.89,246.83l-10.33-9.26c-7.92,5.1-17.45,8.05-27.91,8.05-28.99,0-49.79-21.61-49.79-48.31v-.27c0-26.71,21.07-48.58,50.06-48.58s49.79,21.61,49.79,48.31v.27c0,9.8-2.95,19.19-8.32,26.97l9.66,8.19-13.15,14.63Zm-9.8-49.79c0-16.1-11.81-29.52-28.45-29.52s-28.18,13.15-28.18,29.26v.27c0,16.1,11.81,29.52,28.45,29.52,4.56,0,8.72-.94,12.35-2.55l-15.3-13.02,13.15-14.76,15.43,13.96c1.74-3.89,2.55-8.19,2.55-12.88v-.27Z"/></g></svg>