<svg xmlns="http://www.w3.org/2000/svg" viewBox="0 0 100 100"><defs><style>.cls-1{fill:#231f20;}.cls-1,.cls-2,.cls-3,.cls-4,.cls-5{stroke:#231f20;stroke-miterlimit:10;stroke-width:1.5px;}.cls-2{fill:#f0457d;}.cls-3{fill:#0099f5;}.cls-4{fill:none;}.cls-5{fill:#ffd44d;}</style></defs><g id="Layer_2" data-name="Layer 2"><path class="cls-1" d="M52.12,15.58H27.37a3.13,3.13,0,0,0-3.13,3.13V81.29a3.13,3.13,0,0,0,3.13,3.13H52.12a3.13,3.13,0,0,0,3.13-3.13V18.71A3.13,3.13,0,0,0,52.12,15.58Z"/><path class="cls-2" d="M21.14,27.21v-8.5a3.14,3.14,0,0,1,3.14-3.13H49a3.14,3.14,0,0,1,3.14,3.13V78.78A3.14,3.14,0,0,1,49,81.91H24.28a3.14,3.14,0,0,1-3.14-3.13V35.85"/><polygon class="cls-1" points="52.13 59.62 46.63 64.85 43.31 64.85 43.31 59.62 52.13 59.62"/><path class="cls-3" d="M48,79.26h4.16v2A3.13,3.13,0,0,1,49,84.42H24.28a3.14,3.14,0,0,1-3.14-3.13v-2H42.46"/><line class="cls-4" x1="36.15" y1="19.07" x2="41.77" y2="19.07"/><line class="cls-4" x1="31.53" y1="19.07" x2="33.83" y2="19.07"/><rect class="cls-1" x="38.25" y="36.24" width="40.6" height="23.39" rx="3.46"/><path class="cls-5" d="M73.29,59.62H39.61a3.45,3.45,0,0,1-3.46-3.46V39.7a3.46,3.46,0,0,1,3.46-3.46H73.29a3.45,3.45,0,0,1,3.46,3.46V56.16A3.45,3.45,0,0,1,73.29,59.62Z"/><line class="cls-5" x1="40.5" y1="42.13" x2="54.3" y2="42.13"/><line class="cls-5" x1="40.5" y1="46.04" x2="70.92" y2="46.04"/><line class="cls-5" x1="40.5" y1="49.34" x2="70.92" y2="49.34"/><line class="cls-5" x1="40.5" y1="52.64" x2="65.66" y2="52.64"/><polygon class="cls-5" points="43.31 59.62 43.31 64.85 48.81 59.62 43.31 59.62"/></g></svg>